<svg width="22" height="22" viewBox="0 0 22 22" fill="none" xmlns="http://www.w3.org/2000/svg">
<path fill-rule="evenodd" clip-rule="evenodd" d="M14.4146 20.1668V13.0672H16.798L17.1545 10.3007H14.4137V8.53433C14.4137 7.73316 14.6365 7.18683 15.786 7.18683H17.2508V4.71183C16.5414 4.63561 15.8284 4.59889 15.115 4.60183C13.003 4.60183 11.5574 5.89158 11.5574 8.25933V10.3007H9.16671V13.0672H11.5565V20.1668H2.84537C2.28621 20.1668 1.83337 19.714 1.83337 19.1548V2.8455C1.83337 2.28633 2.28621 1.8335 2.84537 1.8335H19.1547C19.7139 1.8335 20.1667 2.28633 20.1667 2.8455V19.1548C20.1667 19.714 19.7139 20.1668 19.1547 20.1668H14.4146Z" fill="white"/>
</svg>
