<svg width="24" height="24" viewBox="0 0 24 24" fill="none" xmlns="http://www.w3.org/2000/svg">
<path d="M12 9.52C11.5095 9.52 11.03 9.66545 10.6222 9.93795C10.2144 10.2105 9.89648 10.5978 9.70878 11.0509C9.52107 11.5041 9.47196 12.0028 9.56765 12.4838C9.66334 12.9649 9.89954 13.4068 10.2464 13.7536C10.5932 14.1005 11.0351 14.3367 11.5162 14.4323C11.9972 14.528 12.4959 14.4789 12.9491 14.2912C13.4022 14.1035 13.7895 13.7856 14.062 13.3778C14.3346 12.97 14.48 12.4905 14.48 12C14.48 11.6743 14.4159 11.3518 14.2912 11.0509C14.1666 10.7501 13.9839 10.4767 13.7536 10.2464C13.5233 10.0161 13.2499 9.83341 12.9491 9.70878C12.6482 9.58415 12.3257 9.52 12 9.52ZM21.93 7.07C21.9254 6.2977 21.7832 5.5324 21.51 4.81C21.3093 4.28126 20.9987 3.80109 20.5988 3.40119C20.1989 3.00128 19.7187 2.69072 19.19 2.49C18.4676 2.21685 17.7023 2.07462 16.93 2.07C15.64 2 15.26 2 12 2C8.74 2 8.36 2 7.07 2.07C6.2977 2.07462 5.5324 2.21685 4.81 2.49C4.28126 2.69072 3.80109 3.00128 3.40119 3.40119C3.00128 3.80109 2.69072 4.28126 2.49 4.81C2.21685 5.5324 2.07462 6.2977 2.07 7.07C2 8.36 2 8.74 2 12C2 15.26 2 15.64 2.07 16.93C2.08153 17.7049 2.22352 18.4723 2.49 19.2C2.6887 19.7269 2.99915 20.2045 3.4 20.6C3.7984 21.0021 4.27953 21.3126 4.81 21.51C5.5324 21.7832 6.2977 21.9254 7.07 21.93C8.36 22 8.74 22 12 22C15.26 22 15.64 22 16.93 21.93C17.7023 21.9254 18.4676 21.7832 19.19 21.51C19.7205 21.3126 20.2016 21.0021 20.6 20.6C21.0008 20.2045 21.3113 19.7269 21.51 19.2C21.7823 18.4739 21.9244 17.7055 21.93 16.93C22 15.64 22 15.26 22 12C22 8.74 22 8.36 21.93 7.07ZM19.39 15.07C19.3584 15.6872 19.2267 16.2951 19 16.87C18.8059 17.3497 18.5173 17.7854 18.1514 18.1514C17.7854 18.5173 17.3497 18.8059 16.87 19C16.2897 19.2141 15.6783 19.3323 15.06 19.35H8.94C8.32167 19.3323 7.71035 19.2141 7.13 19C6.63395 18.816 6.18605 18.522 5.82 18.14C5.45742 17.7815 5.17756 17.348 5 16.87C4.78574 16.2901 4.6708 15.6782 4.66 15.06V8.94C4.6708 8.32184 4.78574 7.70994 5 7.13C5.18397 6.63395 5.47801 6.18605 5.86 5.82C6.22053 5.45986 6.6534 5.18037 7.13 5C7.71035 4.78589 8.32167 4.66768 8.94 4.65H15.06C15.6783 4.66768 16.2897 4.78589 16.87 5C17.3661 5.18397 17.8139 5.47801 18.18 5.86C18.5426 6.21855 18.8224 6.65199 19 7.13C19.2141 7.71035 19.3323 8.32167 19.35 8.94V12C19.35 14.06 19.42 14.27 19.39 15.06V15.07ZM17.79 7.63C17.6709 7.30698 17.4832 7.01364 17.2398 6.77021C16.9964 6.52678 16.703 6.33906 16.38 6.22C15.9365 6.06626 15.4693 5.99179 15 6H9C8.52827 6.00461 8.06107 6.09263 7.62 6.26C7.30193 6.37366 7.01169 6.55371 6.76858 6.7882C6.52547 7.02269 6.33506 7.30624 6.21 7.62C6.06531 8.06549 5.99437 8.53163 6 9V15C6.01046 15.4711 6.0983 15.9374 6.26 16.38C6.37906 16.703 6.56678 16.9964 6.81021 17.2398C7.05364 17.4832 7.34698 17.6709 7.67 17.79C8.0968 17.9464 8.54571 18.0342 9 18.05H15C15.4717 18.0454 15.9389 17.9574 16.38 17.79C16.703 17.6709 16.9964 17.4832 17.2398 17.2398C17.4832 16.9964 17.6709 16.703 17.79 16.38C17.9574 15.9389 18.0454 15.4717 18.05 15V9C18.0498 8.52784 17.9616 8.05985 17.79 7.62V7.63ZM12 15.82C11.4988 15.82 11.0026 15.7211 10.5397 15.529C10.0768 15.3369 9.6563 15.0554 9.30238 14.7005C8.94846 14.3457 8.66803 13.9245 8.47714 13.4611C8.28626 12.9977 8.18868 12.5012 8.19 12C8.19 11.2441 8.4143 10.5051 8.83449 9.87669C9.25468 9.24828 9.85187 8.75866 10.5505 8.46983C11.2491 8.181 12.0177 8.10594 12.7589 8.25415C13.5002 8.40236 14.1808 8.76717 14.7147 9.30241C15.2485 9.83764 15.6116 10.5192 15.7578 11.2609C15.9041 12.0026 15.827 12.771 15.5363 13.4688C15.2457 14.1666 14.7545 14.7625 14.125 15.1811C13.4955 15.5996 12.7559 15.822 12 15.82ZM16 8.93C15.7789 8.9066 15.5744 8.80222 15.4257 8.63697C15.277 8.47172 15.1947 8.25729 15.1947 8.035C15.1947 7.81271 15.277 7.59828 15.4257 7.43303C15.5744 7.26778 15.7789 7.1634 16 7.14C16.2211 7.1634 16.4256 7.26778 16.5743 7.43303C16.723 7.59828 16.8053 7.81271 16.8053 8.035C16.8053 8.25729 16.723 8.47172 16.5743 8.63697C16.4256 8.80222 16.2211 8.9066 16 8.93Z" fill="white"/>
</svg>
