<svg width="207" height="47" viewBox="0 0 207 47" fill="none" xmlns="http://www.w3.org/2000/svg">
<rect width="65" height="47" fill="#383838"/>
<path d="M20.0554 2.26244C20.2982 2.26103 20.2982 2.26103 20.546 2.25959C21.0782 2.25723 21.6102 2.25878 22.1424 2.2606C22.514 2.26024 22.8855 2.25972 23.2571 2.25904C24.0346 2.25825 24.8122 2.2594 25.5897 2.26192C26.5847 2.26498 27.5795 2.26322 28.5745 2.26C29.3414 2.25805 30.1083 2.25867 30.8752 2.26006C31.242 2.26042 31.6088 2.25999 31.9755 2.25873C32.4888 2.25736 33.0019 2.25945 33.5152 2.26244C33.6657 2.26135 33.8162 2.26027 33.9713 2.25914C34.9201 2.26934 35.5871 2.41902 36.4281 2.87025C36.9494 3.63548 36.8305 4.60814 36.8202 5.50293C36.8198 5.65013 36.8194 5.79734 36.8191 5.94901C36.8172 6.49616 36.8122 7.0433 36.8076 7.59043C36.8002 8.8151 36.7929 10.0398 36.7853 11.3015C39.9674 11.3015 43.1496 11.3015 46.4281 11.3015C46.3692 11.1831 46.3103 11.0648 46.2496 10.9428C46.2079 9.77076 46.2079 9.77076 46.4281 9.32826C46.9304 9.32345 47.4326 9.31987 47.9348 9.31705C48.0781 9.31555 48.2214 9.31405 48.3691 9.3125C48.734 9.31095 49.099 9.31888 49.4639 9.32826C49.6424 9.50765 49.6424 9.50765 49.6599 9.91759C49.6568 10.1642 49.6568 10.1642 49.6536 10.4158C49.652 10.5807 49.6504 10.7456 49.6487 10.9154C49.6456 11.1066 49.6456 11.1066 49.6424 11.3015C49.8054 11.2997 49.9685 11.2978 50.1364 11.2959C50.7438 11.2897 51.3511 11.2852 51.9585 11.2818C52.2209 11.28 52.4833 11.2776 52.7457 11.2745C53.1238 11.2701 53.5019 11.2681 53.88 11.2665C54.2209 11.2637 54.2209 11.2637 54.5686 11.2608C55.1725 11.3012 55.5497 11.3554 56.071 11.6603C56.5997 12.3702 56.6742 12.8924 56.6759 13.7692C56.6774 13.9485 56.6774 13.9485 56.6789 14.1314C56.6814 14.5307 56.6801 14.9298 56.6789 15.329C56.6799 15.6158 56.6811 15.9026 56.6826 16.1893C56.6858 16.9673 56.6856 17.7452 56.6846 18.5232C56.684 19.1727 56.6851 19.8223 56.6862 20.4718C56.6887 22.0041 56.6884 23.5363 56.6864 25.0685C56.6843 26.6493 56.6868 28.2301 56.6916 29.8109C56.6956 31.1683 56.6968 32.5257 56.6957 33.8832C56.6951 34.6938 56.6955 35.5044 56.6986 36.3151C56.7014 37.0772 56.7007 37.8393 56.6973 38.6015C56.6966 38.8811 56.6972 39.1608 56.6991 39.4404C56.7014 39.8223 56.6994 40.2039 56.6962 40.5858C56.6962 40.7995 56.6961 41.0131 56.6961 41.2332C56.5887 41.9116 56.366 42.2084 55.8924 42.6947C55.4742 42.9048 55.2293 42.8969 54.7632 42.8976C54.6 42.8983 54.4369 42.899 54.2688 42.8997C54.0884 42.8996 53.908 42.8994 53.7222 42.8993C53.5315 42.8998 53.3407 42.9003 53.1442 42.9009C52.5009 42.9024 51.8575 42.9027 51.2141 42.903C50.7546 42.9038 50.295 42.9047 49.8355 42.9057C48.584 42.9081 47.3326 42.9092 46.0811 42.91C45.2999 42.9105 44.5188 42.9112 43.7377 42.912C41.5757 42.9142 39.4138 42.9161 37.2519 42.9167C37.1135 42.9167 36.9751 42.9168 36.8324 42.9168C36.6243 42.9169 36.6243 42.9169 36.412 42.9169C36.1308 42.917 35.8496 42.9171 35.5684 42.9172C35.3592 42.9172 35.3592 42.9172 35.1457 42.9173C32.8854 42.918 30.625 42.9211 28.3647 42.9253C26.0451 42.9296 23.7255 42.9318 21.406 42.932C20.1032 42.9322 18.8004 42.9332 17.4976 42.9365C16.2724 42.9395 15.0473 42.9398 13.8221 42.9382C13.3718 42.9381 12.9215 42.9389 12.4713 42.9406C11.8577 42.9429 11.2443 42.9419 10.6307 42.94C10.3619 42.9422 10.3619 42.9422 10.0877 42.9444C8.55942 42.9334 8.55942 42.9334 7.85671 42.3359C7.42665 41.6879 7.45396 41.3933 7.45182 40.6222C7.45101 40.5022 7.4502 40.3822 7.44936 40.2586C7.4471 39.8558 7.4474 39.453 7.44769 39.0502C7.44662 38.7617 7.44541 38.4733 7.44406 38.1848C7.4409 37.4005 7.44007 36.6163 7.43984 35.832C7.4395 35.1775 7.43818 34.5231 7.43692 33.8687C7.43401 32.3247 7.43314 30.7808 7.43339 29.2369C7.43361 27.6437 7.42984 26.0505 7.4242 24.4573C7.41953 23.09 7.41761 21.7226 7.41784 20.3553C7.41793 19.5384 7.41691 18.7216 7.41313 17.9047C7.40968 17.1364 7.40965 16.3681 7.41225 15.5998C7.41262 15.3178 7.41177 15.0359 7.40962 14.7539C7.40686 14.3689 7.40852 13.9841 7.41127 13.599C7.41108 13.3836 7.41088 13.1682 7.41068 12.9462C7.5172 12.2652 7.73696 11.9674 8.21386 11.4809C8.70955 11.2779 9.18227 11.2796 9.7141 11.2812C9.94462 11.2812 9.94462 11.2812 10.1798 11.2812C10.3441 11.2821 10.5083 11.2831 10.6776 11.284C10.9317 11.2844 10.9317 11.2844 11.191 11.2848C11.7314 11.2858 12.2717 11.2881 12.8121 11.2903C13.1787 11.2912 13.5454 11.2921 13.9121 11.2928C14.8103 11.2948 15.7085 11.2979 16.6067 11.3015C16.6039 11.078 16.6011 10.8545 16.5982 10.6242C16.5885 9.79338 16.5824 8.96261 16.5773 8.13179C16.5746 7.77248 16.5709 7.41317 16.5663 7.05388C16.5598 6.53688 16.5568 6.01996 16.5544 5.50293C16.5516 5.34275 16.5489 5.18258 16.546 5.01755C16.5456 3.52089 16.5456 3.52089 17.1424 2.87025C18.1375 2.34183 18.9412 2.25438 20.0554 2.26244ZM19.9996 5.74048C19.9996 7.57563 19.9996 9.41078 19.9996 11.3015C24.4781 11.3015 28.9567 11.3015 33.571 11.3015C33.571 9.46639 33.571 7.63124 33.571 5.74048C29.0924 5.74048 24.6139 5.74048 19.9996 5.74048ZM10.7139 14.7099C10.7139 22.9385 10.7139 31.1671 10.7139 39.6451C14.1906 39.6451 17.6674 39.6451 21.2496 39.6451C20.732 39.2551 20.2247 38.9127 19.6741 38.5766C16.557 36.6542 14.4124 33.7378 13.5047 30.1641C12.8371 26.4073 13.4744 22.7508 15.5353 19.5535C16.9966 17.4682 18.8034 16.0129 21.071 14.8893C21.071 14.8301 21.071 14.7709 21.071 14.7099C17.6531 14.7099 14.2353 14.7099 10.7139 14.7099ZM32.321 14.7099C32.6351 14.9203 32.9523 15.1264 33.2759 15.3217C36.6218 17.3674 38.7058 20.0819 39.821 23.8588C39.9389 24.9244 40.0567 25.9899 40.1781 27.0878C44.5389 27.0878 48.8996 27.0878 53.3924 27.0878C53.3924 23.0031 53.3924 18.9184 53.3924 14.7099C46.4389 14.7099 39.4853 14.7099 32.321 14.7099ZM21.071 18.4771C20.9396 18.5652 20.8081 18.6533 20.6727 18.7441C18.3703 20.4121 17.0856 22.6686 16.5181 25.4278C16.1045 28.1112 16.7318 30.7363 18.2139 33.0077C20.0619 35.5157 22.4618 36.9986 25.5353 37.4924C28.3014 37.7285 31.0567 36.9185 33.2766 35.2381C35.2212 33.5392 36.6445 31.1031 36.9639 28.5229C37.1571 25.2642 36.4465 22.507 34.263 20.0356C32.331 17.9724 29.8765 16.9001 27.0715 16.7787C24.914 16.7466 22.8743 17.2592 21.071 18.4771ZM39.9996 30.3168C39.7049 31.0272 39.4103 31.7376 39.1067 32.4695C37.565 35.7694 35.3692 37.8385 32.1424 39.4657C32.1424 39.5249 32.1424 39.5841 32.1424 39.6451C34.8867 39.6492 37.631 39.6524 40.3753 39.6544C41.6494 39.6553 42.9236 39.6565 44.1977 39.6586C45.4262 39.6606 46.6546 39.6616 47.8831 39.6621C48.3529 39.6624 48.8228 39.6631 49.2926 39.664C49.9482 39.6653 50.6037 39.6655 51.2593 39.6654C51.4557 39.6661 51.6521 39.6667 51.8544 39.6674C52.032 39.6671 52.2095 39.6669 52.3924 39.6666C52.5477 39.6668 52.7029 39.667 52.8628 39.6671C53.2144 39.6841 53.2144 39.6841 53.3924 39.4657C53.4091 39.1793 53.4134 38.8923 53.4127 38.6055C53.4127 38.3269 53.4127 38.3269 53.4126 38.0427C53.4117 37.846 53.4108 37.6494 53.4099 37.4468C53.4097 37.2672 53.4095 37.0875 53.4093 36.9024C53.4084 36.2283 53.4059 35.5541 53.4036 34.88C53.3999 33.3742 53.3962 31.8683 53.3924 30.3168C48.9728 30.3168 44.5531 30.3168 39.9996 30.3168Z" fill="white"/>
<path d="M31.0865 22.0978C32.5901 23.5284 33.2085 25.2182 33.2928 27.2671C33.2418 28.9883 32.6097 30.5051 31.429 31.7519C29.9302 33.1638 28.306 33.7607 26.2504 33.7252C24.3522 33.5275 22.9237 32.7882 21.6236 31.3833C20.3088 29.7152 20.0121 27.9246 20.179 25.832C20.6056 23.8645 21.7496 22.3424 23.417 21.2478C26.0297 19.9247 28.839 20.2997 31.0865 22.0978ZM23.9694 25.3261C23.4248 26.1381 23.3172 26.8341 23.4756 27.8018C23.742 28.8044 24.2876 29.6001 25.179 30.1374C26.2272 30.5594 27.0985 30.5438 28.161 30.1703C28.997 29.7383 29.4455 29.0634 29.8888 28.2538C30.1672 27.135 30.0036 26.3019 29.4647 25.2939C28.7024 24.3832 27.9862 23.9052 26.7973 23.7915C25.5514 23.8511 24.7233 24.3582 23.9694 25.3261Z" fill="white"/>
<path d="M43.1238 17.1963C43.3677 17.1968 43.3677 17.1968 43.6165 17.1974C43.7823 17.1972 43.9481 17.197 44.1189 17.1969C44.4702 17.1967 44.8214 17.1971 45.1727 17.1978C45.7124 17.1988 46.252 17.1978 46.7917 17.1967C47.1321 17.1968 47.4725 17.197 47.8129 17.1974C47.9755 17.197 48.1381 17.1967 48.3056 17.1963C49.4442 17.2006 49.4442 17.2006 49.6433 17.4006C49.6611 17.9107 49.6681 18.4154 49.6656 18.9254C49.6666 19.1401 49.6666 19.1401 49.6677 19.3592C49.6659 20.4275 49.6659 20.4275 49.4647 20.6296C48.9128 20.6478 48.3649 20.6547 47.8129 20.6534C47.6471 20.6536 47.4813 20.6538 47.3105 20.654C46.9592 20.6541 46.608 20.6537 46.2567 20.653C45.717 20.652 45.1774 20.653 44.6377 20.6541C44.2973 20.654 43.9569 20.6538 43.6165 20.6534C43.3726 20.654 43.3726 20.654 43.1238 20.6545C41.9852 20.6502 41.9852 20.6502 41.7861 20.4502C41.7683 19.9402 41.7614 19.4354 41.7638 18.9254C41.7631 18.7823 41.7624 18.6391 41.7617 18.4917C41.7639 17.1802 41.8299 17.2012 43.1238 17.1963Z" fill="white"/>
<path d="M43.1238 17.1963C43.3677 17.1968 43.3677 17.1968 43.6165 17.1974C43.7823 17.1972 43.9481 17.197 44.1189 17.1969C44.4702 17.1967 44.8214 17.1971 45.1727 17.1978C45.7124 17.1988 46.252 17.1978 46.7917 17.1967C47.1321 17.1968 47.4725 17.197 47.8129 17.1974C47.9755 17.197 48.1381 17.1967 48.3056 17.1963C49.4442 17.2006 49.4442 17.2006 49.6433 17.4006C49.6611 17.9107 49.6681 18.4154 49.6656 18.9254C49.6666 19.1401 49.6666 19.1401 49.6677 19.3592C49.6659 20.4275 49.6659 20.4275 49.4647 20.6296C48.9128 20.6478 48.3649 20.6547 47.8129 20.6534C47.6471 20.6536 47.4813 20.6538 47.3105 20.654C46.9592 20.6541 46.608 20.6537 46.2567 20.653C45.717 20.652 45.1774 20.653 44.6377 20.6541C44.2973 20.654 43.9569 20.6538 43.6165 20.6534C43.3726 20.654 43.3726 20.654 43.1238 20.6545C41.9852 20.6502 41.9852 20.6502 41.7861 20.4502C41.7683 19.9402 41.7614 19.4354 41.7638 18.9254C41.7631 18.7823 41.7624 18.6391 41.7617 18.4917C41.7639 17.1802 41.8299 17.2012 43.1238 17.1963ZM41.9647 17.7594C41.9647 18.5882 41.9647 19.4169 41.9647 20.2708C44.3808 20.2116 46.7968 20.1524 49.2861 20.0914C49.4325 18.3455 49.4325 18.3455 49.1076 17.7594C46.7504 17.7594 44.3933 17.7594 41.9647 17.7594Z" fill="white"/>
<path d="M8.74001 11.6387C8.89189 11.6391 9.04376 11.6395 9.20024 11.6399C9.45763 11.6399 9.45763 11.6399 9.72022 11.6399C10.0001 11.6413 10.0001 11.6413 10.2856 11.6427C10.4756 11.643 10.6656 11.6432 10.8613 11.6435C11.4709 11.6445 12.0804 11.6468 12.69 11.649C13.1021 11.6499 13.5143 11.6508 13.9264 11.6515C14.9391 11.6535 15.9518 11.6565 16.9646 11.6602C16.9646 11.7194 16.9646 11.7786 16.9646 11.8396C16.8602 11.8407 16.7559 11.8417 16.6483 11.8428C15.565 11.8543 14.4817 11.8694 13.3984 11.8867C12.9937 11.8927 12.5891 11.8977 12.1845 11.9018C11.6038 11.9078 11.0232 11.9172 10.4425 11.9272C10.2608 11.9284 10.079 11.9295 9.89179 11.9307C9.63979 11.936 9.63979 11.936 9.38269 11.9415C9.23439 11.9435 9.08608 11.9454 8.93328 11.9475C8.7543 11.9829 8.7543 11.9829 8.57171 12.019C8.39492 12.2854 8.39492 12.2854 8.21456 12.5572C8.09671 12.5572 7.97885 12.5572 7.85742 12.5572C8.28625 11.6669 8.28625 11.6669 8.74001 11.6387Z" fill="white"/>
<path d="M46.4282 9.32846C46.9304 9.32365 47.4326 9.32007 47.9349 9.31725C48.0782 9.31575 48.2215 9.31424 48.3691 9.31269C48.7341 9.31115 49.0991 9.31908 49.4639 9.32846C49.6425 9.50785 49.6425 9.50785 49.6536 10.1469C49.65 10.3504 49.6463 10.5539 49.6425 10.7636C49.5835 10.7636 49.5246 10.7636 49.4639 10.7636C49.346 10.4084 49.2282 10.0532 49.1068 9.68724C48.3407 9.68724 47.5746 9.68724 46.7853 9.68724C46.7055 10.67 46.7055 10.67 46.9639 11.1224C46.7871 11.1816 46.6103 11.2408 46.4282 11.3017C46.1616 10.7661 46.2286 10.2777 46.2496 9.68724C46.3085 9.56884 46.3675 9.45045 46.4282 9.32846Z" fill="white"/>
<path d="M22.3214 31.9312C22.9107 31.9312 23.5 31.9312 24.1071 31.9312C24.0482 32.2271 23.9893 32.5231 23.9286 32.8281C23.1582 32.7421 22.8276 32.5149 22.3214 31.9312Z" fill="white"/>
<path d="M31.2504 30.6758C31.4272 30.6758 31.604 30.6758 31.7861 30.6758C31.5914 31.3531 31.4454 31.8365 30.8933 32.2903C30.7754 32.2311 30.6576 32.1719 30.5361 32.1109C30.7369 31.5778 30.9331 31.154 31.2504 30.6758Z" fill="white"/>
<path d="M46.2503 9.68701C46.4271 9.74621 46.6039 9.80541 46.786 9.8664C46.7823 10.007 46.7786 10.1476 46.7749 10.2925C46.7526 10.76 46.7526 10.76 46.9646 11.1221C46.7878 11.1813 46.611 11.2405 46.4289 11.3015C46.1649 10.7711 46.2395 10.2714 46.2503 9.68701Z" fill="white"/>
<rect width="136" height="45" transform="translate(71 1)" fill="#383838"/>
<path d="M77.0287 11.098L76.9367 11.949L77.4427 11.305L82.9627 5.072H87.2867L80.2947 12.662L87.3097 22H83.0777L77.8567 14.778L77.0287 15.606V22H73.6477V5.072H77.0287V11.098ZM100.702 11.098L100.61 11.949L101.116 11.305L106.636 5.072H110.96L103.968 12.662L110.983 22H106.751L101.53 14.778L100.702 15.606V22H97.3215V5.072H100.702V11.098ZM120.995 22V5.072H126.055C127.757 5.072 129.206 5.325 130.402 5.831C131.598 6.337 132.557 7.01167 133.277 7.855C134.013 8.69833 134.55 9.64133 134.887 10.684C135.225 11.7267 135.393 12.777 135.393 13.835C135.393 15.0923 135.163 16.227 134.703 17.239C134.259 18.2357 133.645 19.0943 132.863 19.815C132.081 20.5203 131.177 21.0647 130.149 21.448C129.122 21.816 128.033 22 126.883 22H120.995ZM124.33 18.78H126.308C127.152 18.78 127.918 18.6727 128.608 18.458C129.298 18.228 129.889 17.8983 130.379 17.469C130.885 17.0397 131.269 16.503 131.529 15.859C131.805 15.1997 131.943 14.4483 131.943 13.605C131.943 12.501 131.759 11.604 131.391 10.914C131.039 10.2087 130.594 9.66433 130.057 9.281C129.536 8.89767 128.999 8.637 128.447 8.499C127.895 8.34567 127.428 8.269 127.044 8.269H124.33V18.78ZM145.386 11.949L147.594 17.124L146.996 17.17L148.928 11.949H152.056L147.525 22.598L144.305 15.928L141.361 22.598L136.784 11.949H139.912L142.35 17.538L141.246 17.377L143.178 13.099L142.649 11.949H145.386ZM153.933 11.949H157.153V22H153.933V11.949ZM153.864 8.384C153.864 7.90867 154.048 7.51767 154.416 7.211C154.799 6.90433 155.206 6.751 155.635 6.751C156.064 6.751 156.455 6.90433 156.808 7.211C157.176 7.51767 157.36 7.90867 157.36 8.384C157.36 8.85933 157.176 9.25033 156.808 9.557C156.455 9.84833 156.064 9.994 155.635 9.994C155.206 9.994 154.799 9.84833 154.416 9.557C154.048 9.25033 153.864 8.85933 153.864 8.384ZM165.069 22.207L159.043 11.949H162.861L166.288 18.895L164.31 18.826L167.277 11.949H170.865L165.161 22.207H165.069ZM177.363 22.276C176.137 22.276 175.094 22.046 174.235 21.586C173.392 21.126 172.748 20.4897 172.303 19.677C171.859 18.8643 171.636 17.929 171.636 16.871C171.636 15.859 171.897 14.9467 172.418 14.134C172.94 13.3213 173.637 12.6773 174.511 12.202C175.385 11.7113 176.359 11.466 177.432 11.466C178.874 11.466 180.054 11.8877 180.974 12.731C181.91 13.559 182.515 14.7627 182.791 16.342L174.971 18.826L174.258 17.078L179.916 15.169L179.249 15.468C179.127 15.0693 178.904 14.7243 178.582 14.433C178.276 14.1263 177.808 13.973 177.179 13.973C176.704 13.973 176.282 14.088 175.914 14.318C175.562 14.5327 175.286 14.847 175.086 15.261C174.902 15.6597 174.81 16.135 174.81 16.687C174.81 17.3157 174.925 17.8447 175.155 18.274C175.385 18.688 175.7 19.0023 176.098 19.217C176.497 19.4317 176.942 19.539 177.432 19.539C177.785 19.539 178.122 19.4777 178.444 19.355C178.782 19.2323 179.111 19.0713 179.433 18.872L180.859 21.264C180.323 21.5707 179.74 21.816 179.111 22C178.498 22.184 177.915 22.276 177.363 22.276ZM189.225 22.276C188.29 22.276 187.454 22.0613 186.718 21.632C185.982 21.1873 185.4 20.551 184.97 19.723C184.556 18.895 184.349 17.9137 184.349 16.779C184.349 15.6443 184.579 14.6783 185.039 13.881C185.499 13.0837 186.128 12.478 186.925 12.064C187.723 11.65 188.627 11.443 189.639 11.443C190.283 11.443 190.897 11.5427 191.479 11.742C192.077 11.9413 192.576 12.248 192.974 12.662V13.674V3.853H196.171V22H192.951V20.045L193.204 20.735C192.683 21.1643 192.1 21.5323 191.456 21.839C190.812 22.1303 190.069 22.276 189.225 22.276ZM190.283 19.562C190.713 19.562 191.088 19.5083 191.41 19.401C191.748 19.2783 192.039 19.1097 192.284 18.895C192.545 18.665 192.767 18.3813 192.951 18.044V15.583C192.829 15.2457 192.637 14.962 192.376 14.732C192.131 14.4867 191.824 14.3027 191.456 14.18C191.104 14.042 190.713 13.973 190.283 13.973C189.808 13.973 189.363 14.0957 188.949 14.341C188.551 14.571 188.229 14.893 187.983 15.307C187.738 15.721 187.615 16.1963 187.615 16.733C187.615 17.2697 187.738 17.7527 187.983 18.182C188.229 18.6113 188.551 18.9487 188.949 19.194C189.363 19.4393 189.808 19.562 190.283 19.562ZM199.484 11.949H202.704V22H199.484V11.949ZM199.415 8.384C199.415 7.90867 199.599 7.51767 199.967 7.211C200.35 6.90433 200.757 6.751 201.186 6.751C201.615 6.751 202.006 6.90433 202.359 7.211C202.727 7.51767 202.911 7.90867 202.911 8.384C202.911 8.85933 202.727 9.25033 202.359 9.557C202.006 9.84833 201.615 9.994 201.186 9.994C200.757 9.994 200.35 9.84833 199.967 9.557C199.599 9.25033 199.415 8.85933 199.415 8.384Z" fill="white"/>
<path d="M75.4723 32.324C76.1043 32.324 76.6443 32.432 77.0923 32.648C77.5403 32.856 77.8843 33.16 78.1243 33.56C78.3723 33.96 78.4963 34.444 78.4963 35.012C78.4963 35.356 78.4443 35.696 78.3403 36.032C78.2363 36.36 78.0683 36.66 77.8363 36.932C77.6123 37.196 77.3163 37.408 76.9483 37.568C76.5803 37.728 76.1323 37.808 75.6043 37.808H74.3203V41H73.1563V32.324H75.4723ZM75.5923 36.692C75.9363 36.692 76.2203 36.636 76.4443 36.524C76.6683 36.412 76.8443 36.272 76.9723 36.104C77.1003 35.928 77.1923 35.744 77.2483 35.552C77.3043 35.36 77.3323 35.188 77.3323 35.036C77.3323 34.86 77.3043 34.68 77.2483 34.496C77.1923 34.304 77.0963 34.132 76.9603 33.98C76.8323 33.82 76.6603 33.692 76.4443 33.596C76.2363 33.492 75.9763 33.44 75.6643 33.44H74.3203V36.692H75.5923ZM89.157 32.324V41H88.005V37.196H83.457V41H82.293V32.324H83.457V36.092H88.005V32.324H89.157ZM93.1163 36.668C93.1163 36.068 93.2283 35.504 93.4523 34.976C93.6843 34.44 94.0043 33.968 94.4123 33.56C94.8203 33.144 95.2883 32.82 95.8163 32.588C96.3523 32.348 96.9283 32.228 97.5443 32.228C98.1523 32.228 98.7203 32.348 99.2483 32.588C99.7843 32.82 100.256 33.144 100.664 33.56C101.08 33.968 101.404 34.44 101.636 34.976C101.868 35.504 101.984 36.068 101.984 36.668C101.984 37.284 101.868 37.86 101.636 38.396C101.404 38.932 101.08 39.404 100.664 39.812C100.256 40.212 99.7843 40.528 99.2483 40.76C98.7203 40.984 98.1523 41.096 97.5443 41.096C96.9283 41.096 96.3523 40.984 95.8163 40.76C95.2883 40.536 94.8203 40.224 94.4123 39.824C94.0043 39.424 93.6843 38.956 93.4523 38.42C93.2283 37.884 93.1163 37.3 93.1163 36.668ZM94.3163 36.68C94.3163 37.136 94.4003 37.564 94.5683 37.964C94.7363 38.356 94.9683 38.704 95.2643 39.008C95.5603 39.312 95.9043 39.552 96.2963 39.728C96.6883 39.896 97.1123 39.98 97.5683 39.98C98.0163 39.98 98.4363 39.896 98.8283 39.728C99.2203 39.552 99.5603 39.312 99.8483 39.008C100.136 38.704 100.364 38.356 100.532 37.964C100.7 37.564 100.784 37.132 100.784 36.668C100.784 36.212 100.7 35.784 100.532 35.384C100.364 34.976 100.132 34.62 99.8363 34.316C99.5403 34.012 99.1963 33.776 98.8043 33.608C98.4123 33.432 97.9923 33.344 97.5443 33.344C97.0883 33.344 96.6643 33.432 96.2723 33.608C95.8803 33.784 95.5363 34.024 95.2403 34.328C94.9443 34.632 94.7163 34.988 94.5563 35.396C94.3963 35.796 94.3163 36.224 94.3163 36.68ZM104.946 32.324H110.706V33.44H108.378V41H107.214V33.44H104.946V32.324ZM113.651 36.668C113.651 36.068 113.763 35.504 113.987 34.976C114.219 34.44 114.539 33.968 114.947 33.56C115.355 33.144 115.823 32.82 116.351 32.588C116.887 32.348 117.463 32.228 118.079 32.228C118.687 32.228 119.255 32.348 119.783 32.588C120.319 32.82 120.791 33.144 121.199 33.56C121.615 33.968 121.939 34.44 122.171 34.976C122.403 35.504 122.519 36.068 122.519 36.668C122.519 37.284 122.403 37.86 122.171 38.396C121.939 38.932 121.615 39.404 121.199 39.812C120.791 40.212 120.319 40.528 119.783 40.76C119.255 40.984 118.687 41.096 118.079 41.096C117.463 41.096 116.887 40.984 116.351 40.76C115.823 40.536 115.355 40.224 114.947 39.824C114.539 39.424 114.219 38.956 113.987 38.42C113.763 37.884 113.651 37.3 113.651 36.668ZM114.851 36.68C114.851 37.136 114.935 37.564 115.103 37.964C115.271 38.356 115.503 38.704 115.799 39.008C116.095 39.312 116.439 39.552 116.831 39.728C117.223 39.896 117.647 39.98 118.103 39.98C118.551 39.98 118.971 39.896 119.363 39.728C119.755 39.552 120.095 39.312 120.383 39.008C120.671 38.704 120.899 38.356 121.067 37.964C121.235 37.564 121.319 37.132 121.319 36.668C121.319 36.212 121.235 35.784 121.067 35.384C120.899 34.976 120.667 34.62 120.371 34.316C120.075 34.012 119.731 33.776 119.339 33.608C118.947 33.432 118.527 33.344 118.079 33.344C117.623 33.344 117.199 33.432 116.807 33.608C116.415 33.784 116.071 34.024 115.775 34.328C115.479 34.632 115.251 34.988 115.091 35.396C114.931 35.796 114.851 36.224 114.851 36.68ZM133.272 40.256C133.152 40.36 132.984 40.464 132.768 40.568C132.552 40.664 132.312 40.752 132.048 40.832C131.792 40.912 131.524 40.976 131.244 41.024C130.972 41.072 130.716 41.096 130.476 41.096C129.78 41.096 129.152 40.988 128.592 40.772C128.04 40.556 127.564 40.256 127.164 39.872C126.772 39.488 126.468 39.036 126.252 38.516C126.044 37.996 125.94 37.432 125.94 36.824C125.94 36.104 126.056 35.46 126.288 34.892C126.528 34.316 126.852 33.832 127.26 33.44C127.676 33.04 128.152 32.74 128.688 32.54C129.224 32.332 129.792 32.228 130.392 32.228C130.896 32.228 131.364 32.288 131.796 32.408C132.228 32.528 132.608 32.68 132.936 32.864L132.54 33.932C132.38 33.836 132.18 33.748 131.94 33.668C131.708 33.588 131.468 33.524 131.22 33.476C130.972 33.42 130.74 33.392 130.524 33.392C130.012 33.392 129.548 33.472 129.132 33.632C128.716 33.784 128.36 34.008 128.064 34.304C127.768 34.592 127.54 34.944 127.38 35.36C127.22 35.768 127.14 36.228 127.14 36.74C127.14 37.212 127.22 37.644 127.38 38.036C127.54 38.428 127.768 38.768 128.064 39.056C128.36 39.336 128.712 39.556 129.12 39.716C129.536 39.868 129.992 39.944 130.488 39.944C130.784 39.944 131.076 39.916 131.364 39.86C131.652 39.796 131.9 39.708 132.108 39.596V37.868H130.38V36.752H133.272V40.256ZM139.796 32.324C140.236 32.324 140.64 32.384 141.008 32.504C141.384 32.616 141.708 32.788 141.98 33.02C142.26 33.244 142.476 33.524 142.628 33.86C142.788 34.188 142.868 34.572 142.868 35.012C142.868 35.356 142.816 35.692 142.712 36.02C142.616 36.348 142.452 36.648 142.22 36.92C141.988 37.184 141.684 37.4 141.308 37.568C140.94 37.728 140.484 37.808 139.94 37.808H138.656V41H137.492V32.324H139.796ZM139.916 36.692C140.26 36.692 140.544 36.64 140.768 36.536C141 36.432 141.18 36.3 141.308 36.14C141.436 35.972 141.528 35.792 141.584 35.6C141.64 35.408 141.668 35.228 141.668 35.06C141.668 34.884 141.636 34.704 141.572 34.52C141.516 34.328 141.42 34.152 141.284 33.992C141.156 33.832 140.984 33.7 140.768 33.596C140.56 33.492 140.304 33.44 140 33.44H138.656V36.692H139.916ZM141.344 37.352L143.612 41H142.268L139.964 37.388L141.344 37.352ZM146.538 41L150.33 31.964H150.402L154.182 41H152.85L150.018 33.788L150.846 33.248L147.678 41H146.538ZM148.758 37.712H151.986L152.37 38.72H148.422L148.758 37.712ZM160.132 32.324C160.764 32.324 161.304 32.432 161.752 32.648C162.2 32.856 162.544 33.16 162.784 33.56C163.032 33.96 163.156 34.444 163.156 35.012C163.156 35.356 163.104 35.696 163 36.032C162.896 36.36 162.728 36.66 162.496 36.932C162.272 37.196 161.976 37.408 161.608 37.568C161.24 37.728 160.792 37.808 160.264 37.808H158.98V41H157.816V32.324H160.132ZM160.252 36.692C160.596 36.692 160.88 36.636 161.104 36.524C161.328 36.412 161.504 36.272 161.632 36.104C161.76 35.928 161.852 35.744 161.908 35.552C161.964 35.36 161.992 35.188 161.992 35.036C161.992 34.86 161.964 34.68 161.908 34.496C161.852 34.304 161.756 34.132 161.62 33.98C161.492 33.82 161.32 33.692 161.104 33.596C160.896 33.492 160.636 33.44 160.324 33.44H158.98V36.692H160.252ZM173.817 32.324V41H172.665V37.196H168.117V41H166.953V32.324H168.117V36.092H172.665V32.324H173.817ZM180.62 38.108L177.404 32.324H178.832L181.412 37.112L181.052 37.136L183.608 32.324H185.024L181.784 38.108V41H180.62V38.108Z" fill="#999999"/>
</svg>
